<svg height="2083" viewBox="0 0 2083 2083" width="2083" xmlns="http://www.w3.org/2000/svg"><g fill-rule="evenodd"><path d="m992.396729 225.043701c-482.063813 0-872.855317 390.793823-872.855317 872.861695 0 276.304321 128.417725 522.589233 328.796021 682.525878h1088.126678c200.374268-159.936645 328.79419-406.221557 328.79419-682.525878 0-482.067872-390.793701-872.861695-872.861572-872.861695z" fill="#fff" opacity=".400059"/><path d="m1043.12793 1468.008301h-21.152893v-870.735352h21.152893z" fill="#633"/><path d="m1212.963623 704.49585h-361.102661l-37.043884 530.083252h435.182922z" fill="#fff" opacity=".294369"/><path d="m1735.49585 1478.10376h-1151.639954l-273.010529-149.97583v516.707519h1424.650483z" fill="#c73a3a"/><path d="m1246.559204 955.394531-67.966797-114.159912-162.444946 129.530884 67.95459 114.15979z" fill="#ad0e43"/><path d="m1769.765015 1306.444214 142.752929-29.044556 7.828736-7.869262c8.71167-8.756714 22.54248-9.749634 32.411621-2.327515 9.873779 7.430054 12.758301 20.992065 6.76709 31.787109-5.448731 9.81836-14.03003 17.525025-24.367432 21.89917-8.722168 27.022461-33.92749 45.3125-62.329224 45.219238-22.348755-.081665-42.819946 12.483643-52.874633 32.442139-10.852051 21.549561-29.368287 38.25708-51.908326 46.862793l-4.492431-29.406738-21.004151 11.641357-15.329956 9.061768-17.016723-28.528076c-3.494995-6.713623-6.465454-13.655518-8.902954-20.776123l-62.530396 21.065307c-86.608765 29.174561-176.029541 64.066284-265.449951-54.260376l-30.391358-91.500122 38.726685-29.264038 61.320068 13.899414z" fill="#e8440e"/><path d="m1359.250488 1403.111694 5.769898-12.491821c23.78125-51.517822 25.683716-110.473633 5.281616-163.423584l-289.178711 77.864502-27.56958 98.050903z" fill="#f09e9e"/><path d="m1592.850464 1295.44165 44.699951 24.51587 147.560791 42.301147 10.573364-3.368774c11.771607-3.743653 24.497437 1.765991 29.827881 12.906738 5.326294 11.137085 1.623413 24.507446-8.67749 31.315063-9.366699 6.197144-20.53418 9.069947-31.723755 8.175049l-220.139526 5.765381-17.783814.956177-1.92041-33.158325c0-22.631592 5.090454-44.974488 14.898804-65.376587z" fill="#f63"/><path d="m1343.87793 1063.772461h48.553344l40.543702 48.059326 238.122558 258.325195-45.202514 32.954712-133.862549-44.685913c-86.69043-28.93872-179.070801-55.01709-179.070801-203.336548z" fill="#f63"/><path d="m1035.300293 1143.561768 88.443848-31.723877c70.996338-25.465821 144.989135-41.626221 220.133789-48.06543l10.577514 22.111328c36.637085 76.59082 36.637085 165.64917 0 242.244141l-52.870849 17.802002c-58.729981 19.77124-117.698365 38.834594-176.87793 57.181762h-246.095947z" fill="#fcc"/><path d="m1747.641724 1403.111694h-942.077637l-313.382904-313.385009c-49.666626-49.66211-125.085816-62.959473-188.73291-33.282471-63.65564 29.689575-101.953247 96.012573-95.833374 165.974975 6.124023 69.970704 55.350586 128.63379 123.193359 146.810059l229.321259 229.329468c68.367553 68.359253 162.300415 104.878784 258.890869 100.634643h930.541626c53.121338 0 102.168823-28.454589 128.530029-74.580932 26.361328-46.114014 25.994995-102.819947-.964111-148.59607-26.95752-45.768432-76.371338-72.904663-129.486206-72.904663z" fill="#e04a4a"/><path d="m492.181183 1089.726685.960083-103.816651 128.81662-26.91626c103.621704 19.382569 201.973755 40.667603 277.811767 138.429566l37.496094 4.807617c41.031738 5.256958 80.358765 19.716187 115.030884 42.295166v35.567139c0 95.052124-54.410889 181.714355-140.026978 223.018432h-106.705566z" fill="#633"/><path d="m573.784912 1133.291748 52.523071 72.529907c60.001587 73.19336 143.945313 122.823365 237.003296 140.108277l37.691284-17.720337c86.621216-40.702515 152.026612-116.080933 180.120728-207.572632l-32.269165-20.609375-82.706665 30.440308-50.423218 7.519653c-35.046264 5.224487-68.753906 17.162842-99.279663 35.164062l-104.557617-146.547485c-67.423218 3.892212-119.323242 41.72998-138.102051 106.687622z" fill="#f63"/><path d="m493.141266 985.910034-.960083-185.530395 122.554291 2.402465 7.222412 156.21167z" fill="#f63"/><path d="m615.99292 830.005859 5.964966 128.987915c-33.939575 0-61.450073-28.942871-61.450073-64.644653 0-33.589477 24.345092-61.1875 55.485107-64.343262z" fill="#f24b13"/><path d="m705.901611 722.378784c2.693848 88.72461 20.247559 133.650391-22.078369 210.398316-45.467041 6.978393-103.283691-2.132447-149.002807-35.264161-13.82251-10.020019-25.594208-24.017578-33.801728-40.19165l-30.366699-170.088745z" fill="#f63"/><path d="m1246.559204 955.394531-151.116699-82.440429-162.449219 129.535034 151.108765 82.436157z" fill="#c36"/><path d="m1089.365356 1057.532959c12.009644-9.324097 20.145508-22.768433 22.831299-37.732056 1.407837-7.842895 8.693238-13.224121 16.603272-12.27417 7.9104.9646 13.700561 7.924561 13.200073 15.879151-.445435 6.958252-2.372192 13.743408-5.67627 19.883423l10.5-8.37439-.738403 22.379761v.720337c0 12.272094-4.248291 24.163696-12.015747 33.656616-6.050903 7.391601-11.865478 14.96582-17.447876 22.719604-5.082153 7.059693-11.792114 12.784546-19.563843 16.678833-19.352417 9.712891-37.845825 21.052857-55.27539 33.886719l-31.726319-33.886719 2.889283-25.954345c1.285278-11.584473 4.703613-22.824952 10.087036-33.164551 3.17749-6.095337 3.617065-13.242432 1.216308-19.675293l42.224121 23.030273z" fill="#f63"/><path d="m1223.190796 942.648438-53.309937-88.427979-7.936767-6.48999-48.402954 35.103271z" fill="#fff3f7"/><path d="m705.901611 722.378784 8.675415-48.887573c4.817505-27.134155-8.036621-54.347412-32.043701-67.870728-24.019165-13.521362-53.954956-10.398437-74.657959 7.789917l-105.2612 14.418702c-14.807495 2.028442-27.193359 12.270141-31.962158 26.436401l-5.529907 6.729858c-12.662476 15.411743-17.455933 35.833741-12.975952 55.275391l40.470092 168.219238 35.954194-16.334961c19.295044-8.764648 30.785766-28.918335 28.499145-49.98584l12.353394-43.259643 38.936523-1.924561-9.130859-31.724121c-1.973633-6.846313-.431519-14.225464 4.117675-19.708374 4.549073-5.480835 11.515381-8.359619 18.611573-7.684204z" fill="#333"/><path d="m541.692871 750.08252c-15.006592 5.069946-20.296265 29.565429-11.804199 54.717895 8.495849 25.152466 27.542969 41.436646 42.557495 36.366699 15.010864-5.067993 20.296265-29.563354 11.804199-54.71582-8.492065-25.154541-27.542846-41.438721-42.557495-36.368774z" fill="#f63"/><path d="m1182.51001 263.49585h-299.925049l-30.767944 440.277099h361.454712z" fill="#fff"/></g></svg>