<svg height="305" viewBox="0 0 306 305" width="306" xmlns="http://www.w3.org/2000/svg" xmlns:xlink="http://www.w3.org/1999/xlink"><linearGradient id="a" gradientUnits="userSpaceOnUse" x1="20.162578" x2="131.721111" y1="83.472981" y2="312.263448"><stop offset=".00001" stop-color="#fff"/><stop offset="1" stop-color="#fff" stop-opacity="0"/></linearGradient><linearGradient id="b"><stop offset=".00001" stop-color="#fdfdfd"/><stop offset="1" stop-color="#d4d4d4"/></linearGradient><linearGradient id="c" gradientUnits="userSpaceOnUse" x1="281.185839" x2="170.701553" xlink:href="#b" y1="71.384577" y2="152.105821"/><linearGradient id="d" gradientUnits="userSpaceOnUse" x1="5.491744" x2="133.415256" xlink:href="#b" y1="31.115698" y2="86.161906"/><g stroke-linecap="round" stroke-linejoin="round" stroke-width="6.648016"><path d="m27.859861 105.258911h248.874178c4.38144 0 7.933289 3.252243 7.933289 7.264099v163.419922c0 4.011871-3.551849 7.264099-7.933289 7.264099h-248.874178c-4.381424 0-7.933267-3.252228-7.933267-7.264099v-163.419922c0-4.011856 3.551843-7.264099 7.933267-7.264099z" fill="none" stroke="#fff"/><path d="m28.512295 111.093079h246.569858c1.050293 0 1.901764.779617 1.901764 1.741348v162.136154c0 .961731-.851471 1.741364-1.901764 1.741364h-246.569858c-1.050316 0-1.901764-.779633-1.901764-1.741364v-162.136154c0-.961731.851448-1.741348 1.901764-1.741348z" fill="none" opacity=".312" stroke="url(#a)"/><path d="m280.800446 98.353424-260.409447 1.768738c-4.381291.029755-7.906714 3.30603-7.874214 7.317779l.217415 26.837647c.032499 4.011749 3.610614 7.239777 7.991905 7.210007l260.409454-1.768723c4.381317-.029755 7.906708-3.30603 7.874207-7.317779l-.217408-26.837647c-.032501-4.011734-3.610595-7.239777-7.991912-7.210022z" fill="url(#c)" opacity=".195865" stroke="#fff"/></g><path d="m252.43454 101.427094 26.985992 37.031677-33.896774-.998841-26.521881-35.277496 33.436188-.76918zm-65.05745.671524 25.894318 36.812759-33.666473-.114838-25.670792-35.927261zm-68.189186.42778 25.785118 36.36618-33.666473-.114838-25.55484-35.482177z" fill="#fff" fill-rule="evenodd"/><path d="m37.193485 103.016159c-1.294834 1.302048-2.121113 2.841492-2.108364 4.753052l.009976 20.088592 8.101986 11.297623 33.397537-.205383-25.637047-35.934632z" fill="#fff"/><path d="m9.617967 57.330856 255.584151-53.990341c4.269287-.901855 8.528686 1.536041 9.513611 5.445191l7.264587 28.832885c.984955 3.90918-1.677551 7.809296-5.946838 8.711151l-255.584152 53.990357c-4.269282.901855-8.528668-1.536057-9.513603-5.445221l-7.264592-28.832886c-.984934-3.909164 1.677554-7.80928 5.946836-8.711136z" style="stroke:#fff;stroke-width:6.648016;stroke-linecap:round;stroke-linejoin:round;opacity:.201061;fill:url(#d)"/><path d="m52.645248 51.696533-16.859058 41.760605 32.725597-8.16655 16.85212-39.94934zm64.451737-14.979431-18.344391 44.487045 32.718658-7.264099 18.344376-43.578232zm66.922607-13.619385-17.844635 45.395844 32.718659-7.264099 17.851577-44.48703z" fill="#fff" fill-rule="evenodd"/><path d="m268.86322 6.160858c1.589417.991455 2.783234 2.306976 3.248291 4.169098l4.587799 16.822449-7.495971 17.705841-35.508835 7.804291 16.324631-42.675782z" fill="none"/><path d="m11.73958 63.235336 254.759047-53.816055c.989837-.209106 1.977356.35611 2.205719 1.262421l6.841766 27.154693c.228363.906311-.388946 1.810547-1.378784 2.019654l-254.759047 53.816055c-.989814.209091-1.977337-.356125-2.20569-1.262451l-6.841762-27.154679c-.228353-.906326.388935-1.810547 1.378751-2.019638z" style="fill:none;stroke:#fff;stroke-width:6.648016;stroke-opacity:.575;stroke-linecap:round;stroke-linejoin:round"/><path d="m27.609993 69.173569v49.4823c.092028 3.051681 2.633253 5.571334 5.948219 5.897705h54.783272c5.989861 0 8.842499-8.020371 4.213028-12.252991l-43.129768-46.304657c-6.697815-8.852921-21.814751-4.537674-21.814751 3.177643z" fill="#fff" fill-rule="evenodd"/><path d="m44.462112 77.683319c0 1.691773-1.497798 3.063248-3.345432 3.063248-1.847637 0-3.34544-1.371475-3.34544-3.063248 0-1.691803 1.497803-3.063263 3.34544-3.063263 1.847634 0 3.345432 1.37146 3.345432 3.063263zm0 33.587708c0 1.691787-1.497798 3.063247-3.345432 3.063247-1.847637 0-3.34544-1.37146-3.34544-3.063247 0-1.691788 1.497803-3.063263 3.34544-3.063263 1.847634 0 3.345432 1.371475 3.345432 3.063263zm34.953576 0c0 1.691787-1.497796 3.063247-3.345437 3.063247-1.847633 0-3.345436-1.37146-3.345436-3.063247 0-1.691788 1.497803-3.063263 3.345436-3.063263 1.847641 0 3.345437 1.371475 3.345437 3.063263z" fill="#fff"/></svg>