<svg height="200" viewBox="0 0 200 200" width="200" xmlns="http://www.w3.org/2000/svg" xmlns:xlink="http://www.w3.org/1999/xlink"><linearGradient id="a" gradientUnits="userSpaceOnUse" x1="103" x2="103" y1="174.457011" y2="77.457011"><stop offset="0" stop-color="#fff"/><stop offset=".769418" stop-color="#fff"/><stop offset="1" stop-color="#fff" stop-opacity=".800851"/></linearGradient><path d="m23 185h160v-97h-160zm12.25-13.551086h136.190826v-5.073914h-136.190826zm136.190826-34.125h-136.190826v-5.073914h136.190826z" fill="url(#a)" fill-rule="evenodd"/><path d="m21.647346 86.623962h162.352654v-22.623962h-162.352654z" fill="none" stroke="#fff" stroke-width="1.75"/><path d="m35.879219 86.623962h-14.231873v-23.035171h22.982552zm16.0187 0 8.750671-23.035171h11.651093c-2.917237 7.677978-5.834671 15.355942-8.750672 23.035171zm48.071563-23.035171h-11.651092c-2.917236 7.677978-5.834732 15.355942-8.750671 23.035171h11.649826c2.91745-7.679229 5.834686-15.357193 8.751937-23.035171zm16.017655 0h11.651092c-2.917495 7.677978-5.833435 15.355942-8.75093 23.035171h-11.650055c2.916458-7.679229 5.833435-15.357193 8.749893-23.035171zm39.320877 0h-11.651077c-2.917511 7.677978-5.833451 15.355942-8.750946 23.035171h11.651092zm16.018646 0h13.556931v23.035171h-22.307816z" fill="#fff" fill-rule="evenodd"/><path d="m17.930313 40.853958 161.098496-26.339218 3.717025 22.73407-161.098488 26.339981z" fill="none" stroke="#fff" stroke-width="1.75"/><path d="m62.99942 56.827133c1.640106-8.048538 3.279129-16.09703 4.91948-24.146042l-11.498536 1.880158-4.918182 24.145263-15.809364 2.585312 4.919426-24.145736 10.297561-1.68393-32.979492 5.3918 3.717033 22.734833 56.562104-9.248032c-5.069634.82843-10.140434 1.656678-15.21003 2.486374zm54.614388-8.92926c1.63929-8.049606 3.279556-16.097641 4.918327-24.14595l-38.804878 6.34439c-1.639076 8.048951-3.279396 16.09697-4.918473 24.146454l27.306923-4.464752c-5.269607.860886-10.539001 1.723038-15.809616 2.584122 1.64032-8.047241 3.279328-16.096985 4.919434-24.145264 5.269363-.861618 10.538696-1.723221 15.809631-2.584839-1.640365 8.048279-3.28067 16.09755-4.919479 24.145783zm32.224907-28.610626-11.496964 1.87973c-1.640304 8.049118-3.280655 16.097595-4.919418 24.145828-3.8965.63678-7.792992 1.274094-11.689713 1.911652l33.336289-5.45047-10.148072 1.658203 4.917908-24.144745zm10.890365 21.561294 22.016754-3.599731-3.717025-22.73407-29.190094 4.772507 15.809677-2.584381z" fill="#fff" fill-rule="evenodd"/></svg>