<svg height="501" viewBox="0 0 1760 501" width="1760" xmlns="http://www.w3.org/2000/svg"><path d="m77 120c0 22.0914 17.908607 40 40 40h223c22.0914 0 40-17.9086 40-40v-11c0-22.0914-17.9086-40-40-40h-223c-22.091393 0-40 17.9086-40 40z" fill="#fff" fill-opacity=".795531" fill-rule="evenodd"/><text font-family="Helvetica" font-size="40" x="153" y="127">Scene 1</text><path d="m731 120c0 22.0914 17.90863 40 40 40h223c22.091431 0 40-17.9086 40-40v-11c0-22.0914-17.908569-40-40-40h-223c-22.09137 0-40 17.9086-40 40z" fill="#fff" fill-opacity=".795531" fill-rule="evenodd"/><text font-family="Helvetica" font-size="40" x="807" y="127">Scene 2</text><path d="m679 114-129 65v-31.200012h-112v-67.599976h112v-31.200012z" fill="#fff" fill-opacity=".795531" fill-rule="evenodd" opacity=".504901"/><text font-family="Helvetica" font-size="31" x="457" y="125">Time delay</text><path d="m1371 120c0 22.0914 17.908569 40 40 40h223c22.091431 0 40-17.9086 40-40v-11c0-22.0914-17.908569-40-40-40h-223c-22.091431 0-40 17.9086-40 40z" fill="#fff" fill-opacity=".795531" fill-rule="evenodd"/><text font-family="Helvetica" font-size="40" x="1447" y="127">Scene 3</text><path d="m1319 114-129 65v-31.200012h-112v-67.599976h112v-31.200012z" fill="#fff" fill-opacity=".795531" fill-rule="evenodd" opacity=".502801"/><text font-family="Helvetica" font-size="31" x="1097" y="125">Time delay</text><g fill="#fff" fill-opacity=".795531" fill-rule="evenodd" opacity=".50457"><path d="m218.297562 198.5 64.702438 128.750275-31.080765-.011902-.042709 111.761627-67.341675-.025818.042679-111.761627-31.080765-.011932z"/><path d="m252 439h1311v-66h-1311z"/><path d="m1495 373h68v-173h-68z"/></g><text font-family="Helvetica" font-size="31" x="804" y="417">Time delay</text></svg>